<svg width="31" height="32" viewBox="0 0 31 32" fill="none" xmlns="http://www.w3.org/2000/svg">
<path d="M13.9373 23.7412C16.1178 24.0958 17.5979 26.151 17.2432 28.3315C16.8885 30.5119 14.8334 31.9921 12.6529 31.6374C10.4727 31.2825 8.99234 29.2274 9.34698 27.0471C9.70163 24.8668 11.7569 23.3867 13.9373 23.7412ZM2.58361 16.3588C4.64926 15.5758 6.95851 16.6152 7.74159 18.6808C8.5246 20.7464 7.48495 23.0556 5.41951 23.8388C3.35382 24.6219 1.04366 23.5823 0.260571 21.5166C-0.522381 19.4509 0.517988 17.1418 2.58361 16.3588ZM21.4183 20.9054C22.8157 19.1944 25.3353 18.9404 27.0463 20.3377C28.7573 21.7351 29.0114 24.2547 27.614 25.9657C26.2166 27.6766 23.6969 27.9308 21.986 26.5334C20.2751 25.136 20.021 22.6164 21.4183 20.9054ZM2.82929 5.72412C4.22668 4.0131 6.74724 3.75921 8.45826 5.1566C10.169 6.55403 10.4232 9.07369 9.02595 10.7846C7.62859 12.4956 5.10896 12.7496 3.39794 11.3523C1.68697 9.95495 1.43206 7.43514 2.82929 5.72412ZM25.0247 7.85121C27.0904 7.06815 29.3995 8.10773 30.1827 10.1733C30.9658 12.239 29.9263 14.5482 27.8606 15.3313C25.795 16.1143 23.4858 15.0748 22.7027 13.0092C21.9196 10.9436 22.9592 8.6344 25.0247 7.85121ZM17.7904 0.0524781C19.9708 0.407144 21.451 2.46229 21.0963 4.64277C20.7416 6.82326 18.6865 8.30337 16.506 7.94871C14.3257 7.59385 12.8454 5.53876 13.2001 3.35841C13.5547 1.17807 15.61 -0.301935 17.7904 0.0524781Z" fill="#13C0FF"/>
</svg>
