<svg width="126" height="70" viewBox="0 0 126 70" fill="none" xmlns="http://www.w3.org/2000/svg">
<path d="M34.8906 58.1006H7.63477V62.2998H34.8906V69.1709H0V51.2295H27.2559V47.2588H0V40.3877H34.8906V58.1006ZM97.8779 0C99.3029 3.25776e-05 100.652 0.152047 101.924 0.456055C103.247 0.760082 104.418 1.24168 105.436 1.90039C106.454 2.50848 107.268 3.31952 107.879 4.33301C108.49 5.34645 108.795 6.56266 108.795 7.98145V61.1895C108.795 62.6083 108.49 63.8244 107.879 64.8379C107.268 65.8514 106.454 66.6624 105.436 67.2705C104.418 67.9292 103.247 68.4108 101.924 68.7148C100.881 68.9641 99.7863 69.1084 98.6406 69.1533V69.1709H46.5811V62.2998H60.2471V44.9688H67.8818V62.2998H87.1045C87.0595 61.9446 87.0361 61.5745 87.0361 61.1895V7.98145C87.0361 6.56277 87.3416 5.37192 87.9521 4.40918C88.5629 3.39569 89.3523 2.55916 90.3193 1.90039C91.3373 1.24167 92.4825 0.760086 93.7549 0.456055C95.0782 0.152031 96.4528 0 97.8779 0ZM125.362 68.79H117.728V0.379883H125.362V68.79ZM97.8008 6.84082C96.9357 6.84087 96.1723 7.0184 95.5107 7.37305C94.8491 7.6771 94.5186 8.38712 94.5186 9.50195V59.6689C94.5186 60.7838 94.8491 61.4938 95.5107 61.7979C96.0197 62.0707 96.5893 62.2369 97.2188 62.2998H98.418C99.0869 62.2369 99.6958 62.0708 100.244 61.7979C100.957 61.4431 101.313 60.7331 101.313 59.6689V9.50195C101.313 8.43779 100.957 7.72777 100.244 7.37305C99.5316 7.01837 98.7169 6.84082 97.8008 6.84082ZM80.9375 39.624H47.3447V6.56543H34.6611V36.3418H27.2559V0.458008H80.9375V39.624ZM21.7588 36.3418H0V0.458008H21.7588V36.3418ZM54.9795 32.7529H73.3027V7.3291H54.9795V32.7529ZM7.63477 29.4697H14.124V7.3291H7.63477V29.4697Z" fill="#13C0FF"/>
</svg>
